<?xml version="1.0" standalone="no"?>
<!DOCTYPE svg PUBLIC "-//W3C//DTD SVG 20010904//EN"
 "http://www.w3.org/TR/2001/REC-SVG-20010904/DTD/svg10.dtd">
<svg version="1.0" xmlns="http://www.w3.org/2000/svg"
 width="512.000000pt" height="512.000000pt" viewBox="0 0 512.000000 512.000000"
 preserveAspectRatio="xMidYMid meet">
<metadata>
Created by potrace 1.11, written by Peter Selinger 2001-2013
</metadata>
<g transform="translate(0.000000,512.000000) scale(0.100000,-0.100000)"
fill="#000000" stroke="none">
<path d="M0 2560 l0 -2560 2560 0 2560 0 0 2560 0 2560 -2560 0 -2560 0 0
-2560z m1737 2140 c54 -27 94 -60 194 -159 191 -191 367 -436 575 -800 82
-145 87 -151 122 -156 83 -14 222 -59 296 -96 257 -128 447 -354 535 -636 l26
-81 110 80 c448 325 668 501 818 658 64 67 117 126 117 131 0 16 -378 -129
-680 -261 -431 -188 -410 -181 -467 -159 -92 34 -119 153 -50 217 12 11 51 32
87 47 36 15 148 65 250 112 400 184 605 259 779 288 169 28 273 8 334 -65 116
-138 -5 -367 -357 -678 -263 -233 -418 -353 -711 -553 l-200 -136 -12 -101
c-20 -169 -55 -287 -133 -442 l-40 -80 45 -151 c135 -454 196 -823 166 -1019
-16 -109 -62 -196 -124 -234 -91 -56 -200 -44 -323 36 -73 48 -221 202 -317
330 -100 135 -308 454 -299 462 3 3 14 6 25 6 11 0 72 12 136 26 64 15 121 27
127 28 6 0 44 -48 84 -109 65 -98 170 -240 327 -443 29 -37 59 -67 65 -67 18
0 22 119 8 235 -18 148 -85 454 -136 623 -5 16 -11 14 -52 -17 -113 -82 -256
-150 -395 -188 -114 -31 -333 -31 -458 0 -111 27 -208 61 -283 99 l-59 30
-211 -103 c-825 -400 -1232 -484 -1343 -275 -69 131 4 290 246 532 149 148
276 250 492 394 l142 95 47 -87 c25 -49 54 -101 65 -116 11 -18 15 -31 8 -35
-5 -4 -99 -76 -208 -161 -199 -155 -487 -422 -472 -437 22 -22 652 217 898
341 l70 36 -57 62 c-86 94 -152 192 -204 302 -76 159 -85 207 -84 435 0 178 3
204 26 292 101 372 368 641 768 772 58 19 127 37 153 41 26 4 49 11 52 15 6
10 -120 232 -227 400 -168 262 -271 398 -353 466 -38 31 -48 35 -56 23 -6 -8
-8 -71 -5 -159 7 -193 47 -388 142 -699 20 -62 34 -114 32 -116 -27 -22 -212
-135 -215 -131 -12 12 -86 274 -118 416 -116 522 -116 779 -1 894 75 75 166
84 283 26z"/>
<path d="M2295 3334 c-113 -20 -288 -82 -381 -135 -55 -31 -109 -74 -180 -144
-88 -87 -107 -112 -148 -195 -56 -114 -84 -221 -92 -350 -17 -252 63 -450 257
-643 l89 -88 33 19 c142 85 881 495 893 496 12 1 31 -31 64 -109 l48 -110 -31
-32 c-31 -33 -308 -203 -527 -323 -63 -35 -128 -71 -145 -81 l-29 -18 26 -10
c132 -50 358 -53 493 -7 110 38 236 110 306 176 l59 55 -74 200 c-97 263 -200
519 -297 738 -97 219 -270 577 -278 576 -3 0 -42 -7 -86 -15z m233 -514 c208
-104 236 -380 56 -539 -52 -46 -147 -81 -218 -81 -113 0 -220 70 -273 178 -24
50 -28 69 -28 147 0 78 4 97 27 141 15 28 50 72 78 97 66 60 135 86 226 86 60
1 80 -4 132 -29z"/>
<path d="M2777 3223 c153 -330 269 -604 370 -872 36 -97 66 -177 68 -179 1 -1
9 25 18 59 l15 61 -49 116 c-27 64 -49 121 -49 127 1 5 24 26 53 45 51 35 52
37 49 80 -4 62 -62 228 -103 295 -83 137 -196 245 -328 312 -36 18 -69 33 -73
33 -4 0 9 -35 29 -77z"/>
</g>
</svg>
